<?xml version="1.0" encoding="utf-8"?>
<!-- Generator: Adobe Illustrator 23.0.1, SVG Export Plug-In . SVG Version: 6.00 Build 0)  -->
<svg version="1.1" id="Layer_1" xmlns="http://www.w3.org/2000/svg" xmlns:xlink="http://www.w3.org/1999/xlink" x="0px" y="0px"
	 viewBox="0 0 1000 1000" style="enable-background:new 0 0 1000 1000;" xml:space="preserve">
<style type="text/css">
	.st0{fill:#03CF5D;}
	.st1{fill:none;stroke:#231F20;stroke-width:18;stroke-miterlimit:10;}
	.st2{fill-rule:evenodd;clip-rule:evenodd;fill:#03CF5D;}
	.st3{fill:#231F20;}
	.st4{fill:#BBBDBF;}
	.st5{fill:#FFFFFF;}
</style>
<g>
	<path class="st4" d="M389.5,450l-39.2,100h33.3l4.7-13.2h37.6l4.7,13.2H464l-39.2-100H389.5z M395.9,512.7l11.2-31.2l11.2,31.2
		H395.9z"/>
	<polygon class="st4" points="602.7,512 648.3,512 648.3,488 602.7,488 602.7,474.5 648.8,474.5 648.8,450 570.8,450 570.8,550 
		649.8,550 649.8,525.5 602.7,525.5 	"/>
	<polygon class="st4" points="503.7,515.8 480.1,450 446.8,450 486,550 521.3,550 560.5,450 527.2,450 	"/>
	<polygon class="st4" points="307.6,503.5 270.3,450 239.5,450 239.5,550 271.8,550 271.8,496.5 309.1,550 340,550 340,450 
		307.6,450 	"/>
	<path class="st4" d="M735.3,515.7l3-1.3c11.6-4.9,17.5-15.4,17.5-28.7c0-12.6-4.6-22-13.7-27.8c-8.4-5.4-19.4-7.9-34.5-7.9h-42.2
		v100h31.4v-27.9h11.3l19.1,27.9h33.3L735.3,515.7z M713.5,496.6h-17.2v-21.1h17.2c5.8,0,10.5,4.7,10.5,10.5
		C724,491.9,719.3,496.6,713.5,496.6z"/>
</g>
</svg>
